<?xml version="1.0" standalone="no"?>
<!DOCTYPE svg PUBLIC "-//W3C//DTD SVG 20010904//EN"
 "http://www.w3.org/TR/2001/REC-SVG-20010904/DTD/svg10.dtd">
<svg version="1.0" xmlns="http://www.w3.org/2000/svg"
 width="40.000000pt" height="40.000000pt" viewBox="0 0 40.000000 40.000000"
 preserveAspectRatio="xMidYMid meet">

<g transform="translate(0.000000,40.000000) scale(0.100000,-0.100000)"
fill="#000000" stroke="none">
<path d="M60 200 l0 -180 140 0 140 0 0 133 0 132 -54 48 -55 47 -85 0 -86 0
0 -180z m162 118 l3 -53 53 -3 52 -3 0 -115 0 -114 -130 0 -130 0 0 170 0 170
74 0 75 0 3 -52z m58 -3 l34 -35 -37 0 c-36 0 -37 1 -37 35 0 19 1 35 3 35 2
0 18 -16 37 -35z"/>
<path d="M192 198 c-15 -15 -15 -51 -1 -65 18 -18 39 -3 39 27 0 34 -21 55
-38 38z m15 -45 c-3 -10 -5 -4 -5 12 0 17 2 24 5 18 2 -7 2 -21 0 -30z"/>
<path d="M120 166 c0 -38 10 -49 34 -40 10 4 16 18 16 40 0 30 -3 34 -25 34
-22 0 -25 -4 -25 -34z m40 -1 c0 -8 -4 -17 -10 -20 -6 -4 -10 5 -10 20 0 15 4
24 10 20 6 -3 10 -12 10 -20z"/>
<path d="M247 193 c-12 -12 -7 -50 8 -63 22 -18 31 -5 11 15 -20 20 -20 20 0
39 12 13 13 16 1 16 -7 0 -17 -3 -20 -7z"/>
</g>
</svg>
